<svg width="400" height="400" xmlns="http://www.w3.org/2000/svg">
  <rect width="400" height="400" fill="white"/>
  <style>
    text { font-family: -apple-system, BlinkMacSystemFont, "Segoe UI", Helvetica, Arial, sans-serif; font-size: 11px; fill: #57606a; }
    .label { font-size: 10px; }
    .value { font-size: 9px; fill: #8b949e; }
  </style>
  <circle cx="200" cy="200" r="22" fill="none" stroke="#d0d7de" stroke-width="1"/>
  <circle cx="200" cy="200" r="45" fill="none" stroke="#d0d7de" stroke-width="1"/>
  <circle cx="200" cy="200" r="67" fill="none" stroke="#d0d7de" stroke-width="1"/>
  <circle cx="200" cy="200" r="90" fill="none" stroke="#d0d7de" stroke-width="1"/>
  <line x1="200" y1="200" x2="200.0" y2="110.0" stroke="#d0d7de" stroke-width="1"/>
  <line x1="200" y1="200" x2="263.6396103067893" y2="136.36038969321072" stroke="#d0d7de" stroke-width="1"/>
  <line x1="200" y1="200" x2="290.0" y2="200.0" stroke="#d0d7de" stroke-width="1"/>
  <line x1="200" y1="200" x2="263.6396103067893" y2="263.6396103067893" stroke="#d0d7de" stroke-width="1"/>
  <line x1="200" y1="200" x2="200.0" y2="290.0" stroke="#d0d7de" stroke-width="1"/>
  <line x1="200" y1="200" x2="136.36038969321072" y2="263.6396103067893" stroke="#d0d7de" stroke-width="1"/>
  <line x1="200" y1="200" x2="110.0" y2="200.0" stroke="#d0d7de" stroke-width="1"/>
  <line x1="200" y1="200" x2="136.36038969321072" y2="136.36038969321072" stroke="#d0d7de" stroke-width="1"/>
  <polygon points="200.0,110.0 257.27564927611036,142.72435072388964 272.0,200.0 247.72970773009195,247.72970773009195 200.0,258.5 161.81623381592644,238.1837661840736 155.0,200.0 171.36217536194482,171.36217536194482" fill="#9be9a7" fill-opacity="0.5" stroke="#40c463" stroke-width="2"/>
  <circle cx="200.0" cy="110.0" r="4" fill="#40c463"/>
  <circle cx="257.27564927611036" cy="142.72435072388964" r="4" fill="#40c463"/>
  <circle cx="272.0" cy="200.0" r="4" fill="#40c463"/>
  <circle cx="247.72970773009195" cy="247.72970773009195" r="4" fill="#40c463"/>
  <circle cx="200.0" cy="258.5" r="4" fill="#40c463"/>
  <circle cx="161.81623381592644" cy="238.1837661840736" r="4" fill="#40c463"/>
  <circle cx="155.0" cy="200.0" r="4" fill="#40c463"/>
  <circle cx="171.36217536194482" cy="171.36217536194482" r="4" fill="#40c463"/>
  <text x="200.0" y="60.0" text-anchor="middle" class="label">Nature</text>
  <text x="200.0" y="75.0" text-anchor="middle" class="value">(16)</text>
  <text x="288.3883476483185" y="111.61165235168157" text-anchor="start" class="label">arXiv</text>
  <text x="288.3883476483185" y="126.61165235168157" text-anchor="start" class="value">(14)</text>
  <text x="325.0" y="200.0" text-anchor="start" class="label">Science</text>
  <text x="325.0" y="215.0" text-anchor="start" class="value">(12)</text>
  <text x="288.3883476483185" y="288.3883476483184" text-anchor="start" class="label">PNAS</text>
  <text x="288.3883476483185" y="303.3883476483184" text-anchor="start" class="value">(11)</text>
  <text x="200.0" y="330.0" text-anchor="middle" class="label">Cell</text>
  <text x="200.0" y="345.0" text-anchor="middle" class="value">(9)</text>
  <text x="111.61165235168157" y="288.3883476483185" text-anchor="end" class="label">IEEE</text>
  <text x="111.61165235168157" y="303.3883476483185" text-anchor="end" class="value">(8)</text>
  <text x="75.0" y="200.00000000000003" text-anchor="end" class="label">ACM</text>
  <text x="75.0" y="215.00000000000003" text-anchor="end" class="value">(6)</text>
  <text x="111.61165235168154" y="111.61165235168157" text-anchor="end" class="label">PLOS ONE</text>
  <text x="111.61165235168154" y="126.61165235168157" text-anchor="end" class="value">(5)</text>
</svg>