<svg width="400" height="400" xmlns="http://www.w3.org/2000/svg">
  <rect width="400" height="400" fill="white"/>
  <style>
    text { font-family: -apple-system, BlinkMacSystemFont, "Segoe UI", Helvetica, Arial, sans-serif; font-size: 11px; fill: #57606a; }
    .label { font-size: 10px; }
    .value { font-size: 9px; fill: #8b949e; }
  </style>
  <circle cx="200" cy="200" r="22" fill="none" stroke="#d0d7de" stroke-width="1"/>
  <circle cx="200" cy="200" r="45" fill="none" stroke="#d0d7de" stroke-width="1"/>
  <circle cx="200" cy="200" r="67" fill="none" stroke="#d0d7de" stroke-width="1"/>
  <circle cx="200" cy="200" r="90" fill="none" stroke="#d0d7de" stroke-width="1"/>
  <line x1="200" y1="200" x2="200.0" y2="110.0" stroke="#d0d7de" stroke-width="1"/>
  <line x1="200" y1="200" x2="263.6396103067893" y2="136.36038969321072" stroke="#d0d7de" stroke-width="1"/>
  <line x1="200" y1="200" x2="290.0" y2="200.0" stroke="#d0d7de" stroke-width="1"/>
  <line x1="200" y1="200" x2="263.6396103067893" y2="263.6396103067893" stroke="#d0d7de" stroke-width="1"/>
  <line x1="200" y1="200" x2="200.0" y2="290.0" stroke="#d0d7de" stroke-width="1"/>
  <line x1="200" y1="200" x2="136.36038969321072" y2="263.6396103067893" stroke="#d0d7de" stroke-width="1"/>
  <line x1="200" y1="200" x2="110.0" y2="200.0" stroke="#d0d7de" stroke-width="1"/>
  <line x1="200" y1="200" x2="136.36038969321072" y2="136.36038969321072" stroke="#d0d7de" stroke-width="1"/>
  <polygon points="200.0,110.0 223.52737108311604,176.47262891688396 226.72727272727272,200.0 216.5848681405572,216.5848681405572 200.0,223.45454545454547 183.80082646736273,216.19917353263727 177.63636363636363,200.0 184.5722156832026,184.57221568320261" fill="#9be9a7" fill-opacity="0.5" stroke="#40c463" stroke-width="2"/>
  <circle cx="200.0" cy="110.0" r="4" fill="#40c463"/>
  <circle cx="223.52737108311604" cy="176.47262891688396" r="4" fill="#40c463"/>
  <circle cx="226.72727272727272" cy="200.0" r="4" fill="#40c463"/>
  <circle cx="216.5848681405572" cy="216.5848681405572" r="4" fill="#40c463"/>
  <circle cx="200.0" cy="223.45454545454547" r="4" fill="#40c463"/>
  <circle cx="183.80082646736273" cy="216.19917353263727" r="4" fill="#40c463"/>
  <circle cx="177.63636363636363" cy="200.0" r="4" fill="#40c463"/>
  <circle cx="184.5722156832026" cy="184.57221568320261" r="4" fill="#40c463"/>
  <text x="200.0" y="60.0" text-anchor="middle" class="label">arXiv</text>
  <text x="200.0" y="75.0" text-anchor="middle" class="value">(132)</text>
  <text x="288.3883476483185" y="111.61165235168157" text-anchor="start" class="label">Journal of</text>
  <text x="288.3883476483185" y="126.61165235168157" text-anchor="start" class="label">the...</text>
  <text x="288.3883476483185" y="141.61165235168158" text-anchor="start" class="value">(28)</text>
  <text x="325.0" y="200.0" text-anchor="start" class="label">Journal of</text>
  <text x="325.0" y="215.0" text-anchor="start" class="label">Biomedica...</text>
  <text x="325.0" y="230.0" text-anchor="start" class="value">(16)</text>
  <text x="288.3883476483185" y="288.3883476483184" text-anchor="start" class="label">AMIA ...</text>
  <text x="288.3883476483185" y="303.3883476483184" text-anchor="start" class="label">Annual...</text>
  <text x="288.3883476483185" y="318.3883476483184" text-anchor="start" class="value">(10)</text>
  <text x="200.0" y="330.0" text-anchor="middle" class="label">Medical Care</text>
  <text x="200.0" y="345.0" text-anchor="middle" class="value">(10)</text>
  <text x="111.61165235168157" y="288.3883476483185" text-anchor="end" class="label">BMC Medical</text>
  <text x="111.61165235168157" y="303.3883476483185" text-anchor="end" class="label">Informatic...</text>
  <text x="111.61165235168157" y="318.3883476483185" text-anchor="end" class="value">(9)</text>
  <text x="75.0" y="200.00000000000003" text-anchor="end" class="label">BMC</text>
  <text x="75.0" y="215.00000000000003" text-anchor="end" class="label">Bioinformatics</text>
  <text x="75.0" y="230.00000000000003" text-anchor="end" class="value">(8)</text>
  <text x="111.61165235168154" y="111.61165235168157" text-anchor="end" class="label">BMJ</text>
  <text x="111.61165235168154" y="126.61165235168157" text-anchor="end" class="value">(7)</text>
</svg>