<svg width="900" height="698" xmlns="http://www.w3.org/2000/svg" xmlns:xlink="http://www.w3.org/1999/xlink">
  <rect width="900" height="698" fill="white"/>
  <style>
    text { font-family: -apple-system, BlinkMacSystemFont, "Segoe UI", Helvetica, Arial, sans-serif; font-size: 9px; fill: #57606a; }
    .legend { font-size: 9px; }
    .label { font-size: 10px; }
    .value { font-size: 9px; fill: #8b949e; }
    .footer { font-size: 11px; fill: #8b949e; }
    .footer-link { font-size: 11px; fill: #0969da; }
  </style>

  <!-- Activity Graph -->
  <g transform="translate(40, 20)">
    <text x="52" y="26">Jan</text>
    <text x="122" y="26">Mar</text>
    <text x="192" y="26">Apr</text>
    <text x="248" y="26">May</text>
    <text x="304" y="26">Jun</text>
    <text x="374" y="26">Jul</text>
    <text x="430" y="26">Aug</text>
    <text x="500" y="26">Sep</text>
    <text x="556" y="26">Oct</text>
    <text x="612" y="26">Nov</text>
    <text x="682" y="26">Dec</text>
    <text x="738" y="26">Jan</text>
    <text x="16" y="56.5">Mon</text>
    <text x="16" y="84.5">Wed</text>
    <text x="16" y="112.5">Fri</text>
    <!-- Sample activity squares -->
    <rect x="52" y="34" width="11" height="11" rx="2" ry="2" fill="#ebedf0"/>
    <rect x="52" y="48" width="11" height="11" rx="2" ry="2" fill="#9be9a7"/>
    <rect x="52" y="62" width="11" height="11" rx="2" ry="2" fill="#ebedf0"/>
    <rect x="52" y="76" width="11" height="11" rx="2" ry="2" fill="#40c463"/>
    <rect x="52" y="90" width="11" height="11" rx="2" ry="2" fill="#ebedf0"/>
    <rect x="52" y="104" width="11" height="11" rx="2" ry="2" fill="#9be9a7"/>
    <rect x="52" y="118" width="11" height="11" rx="2" ry="2" fill="#ebedf0"/>
    <rect x="66" y="34" width="11" height="11" rx="2" ry="2" fill="#ebedf0"/>
    <rect x="66" y="48" width="11" height="11" rx="2" ry="2" fill="#ebedf0"/>
    <rect x="66" y="62" width="11" height="11" rx="2" ry="2" fill="#30a14e"/>
    <rect x="66" y="76" width="11" height="11" rx="2" ry="2" fill="#ebedf0"/>
    <rect x="66" y="90" width="11" height="11" rx="2" ry="2" fill="#9be9a7"/>
    <rect x="66" y="104" width="11" height="11" rx="2" ry="2" fill="#ebedf0"/>
    <rect x="66" y="118" width="11" height="11" rx="2" ry="2" fill="#ebedf0"/>
    <rect x="80" y="34" width="11" height="11" rx="2" ry="2" fill="#9be9a7"/>
    <rect x="80" y="48" width="11" height="11" rx="2" ry="2" fill="#ebedf0"/>
    <rect x="80" y="62" width="11" height="11" rx="2" ry="2" fill="#ebedf0"/>
    <rect x="80" y="76" width="11" height="11" rx="2" ry="2" fill="#40c463"/>
    <rect x="80" y="90" width="11" height="11" rx="2" ry="2" fill="#ebedf0"/>
    <rect x="80" y="104" width="11" height="11" rx="2" ry="2" fill="#ebedf0"/>
    <rect x="80" y="118" width="11" height="11" rx="2" ry="2" fill="#216e39"/>
    <!-- Continue with more representative squares across the year -->
    <rect x="94" y="34" width="11" height="11" rx="2" ry="2" fill="#ebedf0"/>
    <rect x="94" y="48" width="11" height="11" rx="2" ry="2" fill="#9be9a7"/>
    <rect x="94" y="62" width="11" height="11" rx="2" ry="2" fill="#ebedf0"/>
    <rect x="94" y="76" width="11" height="11" rx="2" ry="2" fill="#ebedf0"/>
    <rect x="94" y="90" width="11" height="11" rx="2" ry="2" fill="#ebedf0"/>
    <rect x="94" y="104" width="11" height="11" rx="2" ry="2" fill="#40c463"/>
    <rect x="94" y="118" width="11" height="11" rx="2" ry="2" fill="#ebedf0"/>
    <rect x="108" y="34" width="11" height="11" rx="2" ry="2" fill="#ebedf0"/>
    <rect x="108" y="48" width="11" height="11" rx="2" ry="2" fill="#ebedf0"/>
    <rect x="108" y="62" width="11" height="11" rx="2" ry="2" fill="#9be9a7"/>
    <rect x="108" y="76" width="11" height="11" rx="2" ry="2" fill="#ebedf0"/>
    <rect x="108" y="90" width="11" height="11" rx="2" ry="2" fill="#ebedf0"/>
    <rect x="108" y="104" width="11" height="11" rx="2" ry="2" fill="#ebedf0"/>
    <rect x="108" y="118" width="11" height="11" rx="2" ry="2" fill="#30a14e"/>
    <!-- More representative weeks -->
    <rect x="122" y="34" width="11" height="11" rx="2" ry="2" fill="#ebedf0"/>
    <rect x="122" y="48" width="11" height="11" rx="2" ry="2" fill="#40c463"/>
    <rect x="122" y="62" width="11" height="11" rx="2" ry="2" fill="#ebedf0"/>
    <rect x="122" y="76" width="11" height="11" rx="2" ry="2" fill="#ebedf0"/>
    <rect x="122" y="90" width="11" height="11" rx="2" ry="2" fill="#9be9a7"/>
    <rect x="122" y="104" width="11" height="11" rx="2" ry="2" fill="#ebedf0"/>
    <rect x="122" y="118" width="11" height="11" rx="2" ry="2" fill="#ebedf0"/>
    <!-- Fill rest with pattern -->
    <rect x="136" y="34" width="11" height="11" rx="2" ry="2" fill="#9be9a7"/>
    <rect x="136" y="48" width="11" height="11" rx="2" ry="2" fill="#ebedf0"/>
    <rect x="136" y="62" width="11" height="11" rx="2" ry="2" fill="#ebedf0"/>
    <rect x="136" y="76" width="11" height="11" rx="2" ry="2" fill="#ebedf0"/>
    <rect x="136" y="90" width="11" height="11" rx="2" ry="2" fill="#40c463"/>
    <rect x="136" y="104" width="11" height="11" rx="2" ry="2" fill="#ebedf0"/>
    <rect x="136" y="118" width="11" height="11" rx="2" ry="2" fill="#ebedf0"/>
    <rect x="150" y="34" width="11" height="11" rx="2" ry="2" fill="#ebedf0"/>
    <rect x="150" y="48" width="11" height="11" rx="2" ry="2" fill="#ebedf0"/>
    <rect x="150" y="62" width="11" height="11" rx="2" ry="2" fill="#ebedf0"/>
    <rect x="150" y="76" width="11" height="11" rx="2" ry="2" fill="#9be9a7"/>
    <rect x="150" y="90" width="11" height="11" rx="2" ry="2" fill="#ebedf0"/>
    <rect x="150" y="104" width="11" height="11" rx="2" ry="2" fill="#ebedf0"/>
    <rect x="150" y="118" width="11" height="11" rx="2" ry="2" fill="#ebedf0"/>
    <rect x="164" y="34" width="11" height="11" rx="2" ry="2" fill="#ebedf0"/>
    <rect x="164" y="48" width="11" height="11" rx="2" ry="2" fill="#30a14e"/>
    <rect x="164" y="62" width="11" height="11" rx="2" ry="2" fill="#ebedf0"/>
    <rect x="164" y="76" width="11" height="11" rx="2" ry="2" fill="#ebedf0"/>
    <rect x="164" y="90" width="11" height="11" rx="2" ry="2" fill="#ebedf0"/>
    <rect x="164" y="104" width="11" height="11" rx="2" ry="2" fill="#9be9a7"/>
    <rect x="164" y="118" width="11" height="11" rx="2" ry="2" fill="#ebedf0"/>
    <!-- Continue sparse pattern through months -->
    <rect x="178" y="34" width="11" height="11" rx="2" ry="2" fill="#ebedf0"/>
    <rect x="178" y="48" width="11" height="11" rx="2" ry="2" fill="#ebedf0"/>
    <rect x="178" y="62" width="11" height="11" rx="2" ry="2" fill="#40c463"/>
    <rect x="178" y="76" width="11" height="11" rx="2" ry="2" fill="#ebedf0"/>
    <rect x="178" y="90" width="11" height="11" rx="2" ry="2" fill="#ebedf0"/>
    <rect x="178" y="104" width="11" height="11" rx="2" ry="2" fill="#ebedf0"/>
    <rect x="178" y="118" width="11" height="11" rx="2" ry="2" fill="#ebedf0"/>
    <rect x="192" y="34" width="11" height="11" rx="2" ry="2" fill="#9be9a7"/>
    <rect x="192" y="48" width="11" height="11" rx="2" ry="2" fill="#ebedf0"/>
    <rect x="192" y="62" width="11" height="11" rx="2" ry="2" fill="#ebedf0"/>
    <rect x="192" y="76" width="11" height="11" rx="2" ry="2" fill="#ebedf0"/>
    <rect x="192" y="90" width="11" height="11" rx="2" ry="2" fill="#ebedf0"/>
    <rect x="192" y="104" width="11" height="11" rx="2" ry="2" fill="#216e39"/>
    <rect x="192" y="118" width="11" height="11" rx="2" ry="2" fill="#ebedf0"/>
    <!-- More weeks abbreviated for space -->
    <rect x="206" y="34" width="11" height="11" rx="2" ry="2" fill="#ebedf0"/>
    <rect x="206" y="48" width="11" height="11" rx="2" ry="2" fill="#ebedf0"/>
    <rect x="206" y="62" width="11" height="11" rx="2" ry="2" fill="#ebedf0"/>
    <rect x="206" y="76" width="11" height="11" rx="2" ry="2" fill="#9be9a7"/>
    <rect x="206" y="90" width="11" height="11" rx="2" ry="2" fill="#ebedf0"/>
    <rect x="206" y="104" width="11" height="11" rx="2" ry="2" fill="#ebedf0"/>
    <rect x="206" y="118" width="11" height="11" rx="2" ry="2" fill="#ebedf0"/>
    <rect x="220" y="34" width="11" height="11" rx="2" ry="2" fill="#ebedf0"/>
    <rect x="220" y="48" width="11" height="11" rx="2" ry="2" fill="#40c463"/>
    <rect x="220" y="62" width="11" height="11" rx="2" ry="2" fill="#ebedf0"/>
    <rect x="220" y="76" width="11" height="11" rx="2" ry="2" fill="#ebedf0"/>
    <rect x="220" y="90" width="11" height="11" rx="2" ry="2" fill="#ebedf0"/>
    <rect x="220" y="104" width="11" height="11" rx="2" ry="2" fill="#ebedf0"/>
    <rect x="220" y="118" width="11" height="11" rx="2" ry="2" fill="#9be9a7"/>
    <!-- May through December abbreviated -->
    <rect x="234" y="62" width="11" height="11" rx="2" ry="2" fill="#ebedf0"/>
    <rect x="234" y="90" width="11" height="11" rx="2" ry="2" fill="#30a14e"/>
    <rect x="248" y="34" width="11" height="11" rx="2" ry="2" fill="#9be9a7"/>
    <rect x="248" y="118" width="11" height="11" rx="2" ry="2" fill="#40c463"/>
    <rect x="262" y="62" width="11" height="11" rx="2" ry="2" fill="#9be9a7"/>
    <rect x="276" y="76" width="11" height="11" rx="2" ry="2" fill="#216e39"/>
    <rect x="290" y="48" width="11" height="11" rx="2" ry="2" fill="#9be9a7"/>
    <rect x="290" y="104" width="11" height="11" rx="2" ry="2" fill="#40c463"/>
    <rect x="304" y="90" width="11" height="11" rx="2" ry="2" fill="#9be9a7"/>
    <rect x="318" y="34" width="11" height="11" rx="2" ry="2" fill="#30a14e"/>
    <rect x="318" y="118" width="11" height="11" rx="2" ry="2" fill="#9be9a7"/>
    <rect x="332" y="62" width="11" height="11" rx="2" ry="2" fill="#40c463"/>
    <rect x="346" y="48" width="11" height="11" rx="2" ry="2" fill="#9be9a7"/>
    <rect x="360" y="76" width="11" height="11" rx="2" ry="2" fill="#216e39"/>
    <rect x="360" y="104" width="11" height="11" rx="2" ry="2" fill="#9be9a7"/>
    <rect x="374" y="90" width="11" height="11" rx="2" ry="2" fill="#40c463"/>
    <rect x="388" y="34" width="11" height="11" rx="2" ry="2" fill="#9be9a7"/>
    <rect x="388" y="104" width="11" height="11" rx="2" ry="2" fill="#30a14e"/>
    <rect x="402" y="62" width="11" height="11" rx="2" ry="2" fill="#9be9a7"/>
    <rect x="416" y="48" width="11" height="11" rx="2" ry="2" fill="#40c463"/>
    <rect x="416" y="118" width="11" height="11" rx="2" ry="2" fill="#9be9a7"/>
    <rect x="430" y="76" width="11" height="11" rx="2" ry="2" fill="#9be9a7"/>
    <rect x="444" y="34" width="11" height="11" rx="2" ry="2" fill="#216e39"/>
    <rect x="444" y="90" width="11" height="11" rx="2" ry="2" fill="#40c463"/>
    <rect x="458" y="48" width="11" height="11" rx="2" ry="2" fill="#9be9a7"/>
    <rect x="458" y="118" width="11" height="11" rx="2" ry="2" fill="#30a14e"/>
    <rect x="472" y="90" width="11" height="11" rx="2" ry="2" fill="#9be9a7"/>
    <rect x="486" y="62" width="11" height="11" rx="2" ry="2" fill="#40c463"/>
    <rect x="500" y="34" width="11" height="11" rx="2" ry="2" fill="#9be9a7"/>
    <rect x="500" y="104" width="11" height="11" rx="2" ry="2" fill="#216e39"/>
    <rect x="514" y="76" width="11" height="11" rx="2" ry="2" fill="#30a14e"/>
    <rect x="514" y="118" width="11" height="11" rx="2" ry="2" fill="#9be9a7"/>
    <rect x="528" y="48" width="11" height="11" rx="2" ry="2" fill="#40c463"/>
    <rect x="542" y="62" width="11" height="11" rx="2" ry="2" fill="#9be9a7"/>
    <rect x="556" y="104" width="11" height="11" rx="2" ry="2" fill="#40c463"/>
    <rect x="570" y="34" width="11" height="11" rx="2" ry="2" fill="#30a14e"/>
    <rect x="570" y="76" width="11" height="11" rx="2" ry="2" fill="#9be9a7"/>
    <rect x="584" y="90" width="11" height="11" rx="2" ry="2" fill="#216e39"/>
    <rect x="584" y="118" width="11" height="11" rx="2" ry="2" fill="#9be9a7"/>
    <rect x="598" y="48" width="11" height="11" rx="2" ry="2" fill="#40c463"/>
    <rect x="612" y="62" width="11" height="11" rx="2" ry="2" fill="#9be9a7"/>
    <rect x="612" y="104" width="11" height="11" rx="2" ry="2" fill="#30a14e"/>
    <rect x="626" y="76" width="11" height="11" rx="2" ry="2" fill="#40c463"/>
    <rect x="640" y="34" width="11" height="11" rx="2" ry="2" fill="#9be9a7"/>
    <rect x="640" y="118" width="11" height="11" rx="2" ry="2" fill="#216e39"/>
    <rect x="654" y="90" width="11" height="11" rx="2" ry="2" fill="#9be9a7"/>
    <rect x="668" y="48" width="11" height="11" rx="2" ry="2" fill="#40c463"/>
    <rect x="682" y="62" width="11" height="11" rx="2" ry="2" fill="#30a14e"/>
    <rect x="682" y="90" width="11" height="11" rx="2" ry="2" fill="#9be9a7"/>
    <rect x="696" y="76" width="11" height="11" rx="2" ry="2" fill="#40c463"/>
    <rect x="710" y="34" width="11" height="11" rx="2" ry="2" fill="#9be9a7"/>
    <rect x="710" y="90" width="11" height="11" rx="2" ry="2" fill="#216e39"/>
    <rect x="724" y="76" width="11" height="11" rx="2" ry="2" fill="#9be9a7"/>
    <rect x="724" y="104" width="11" height="11" rx="2" ry="2" fill="#30a14e"/>
    <rect x="738" y="34" width="11" height="11" rx="2" ry="2" fill="#40c463"/>
    <rect x="738" y="62" width="11" height="11" rx="2" ry="2" fill="#9be9a7"/>
    <rect x="752" y="76" width="11" height="11" rx="2" ry="2" fill="#216e39"/>
    <rect x="752" y="104" width="11" height="11" rx="2" ry="2" fill="#9be9a7"/>
    <rect x="766" y="48" width="11" height="11" rx="2" ry="2" fill="#40c463"/>
    <!-- Legend -->
    <text x="693" y="150" text-anchor="end" class="legend">Less</text>
    <rect x="698" y="140" width="11" height="11" rx="2" ry="2" fill="#ebedf0"/>
    <rect x="713" y="140" width="11" height="11" rx="2" ry="2" fill="#9be9a7"/>
    <rect x="728" y="140" width="11" height="11" rx="2" ry="2" fill="#40c463"/>
    <rect x="743" y="140" width="11" height="11" rx="2" ry="2" fill="#30a14e"/>
    <rect x="758" y="140" width="11" height="11" rx="2" ry="2" fill="#216e39"/>
    <text x="774" y="150" class="legend">More</text>
  </g>

  <!-- Topics Radar Chart -->
  <g transform="translate(20, 248)">
    <circle cx="200" cy="200" r="22" fill="none" stroke="#d0d7de" stroke-width="1"/>
    <circle cx="200" cy="200" r="45" fill="none" stroke="#d0d7de" stroke-width="1"/>
    <circle cx="200" cy="200" r="67" fill="none" stroke="#d0d7de" stroke-width="1"/>
    <circle cx="200" cy="200" r="90" fill="none" stroke="#d0d7de" stroke-width="1"/>
    <line x1="200" y1="200" x2="200" y2="110" stroke="#d0d7de" stroke-width="1"/>
    <line x1="200" y1="200" x2="264" y2="136" stroke="#d0d7de" stroke-width="1"/>
    <line x1="200" y1="200" x2="290" y2="200" stroke="#d0d7de" stroke-width="1"/>
    <line x1="200" y1="200" x2="264" y2="264" stroke="#d0d7de" stroke-width="1"/>
    <line x1="200" y1="200" x2="200" y2="290" stroke="#d0d7de" stroke-width="1"/>
    <line x1="200" y1="200" x2="136" y2="264" stroke="#d0d7de" stroke-width="1"/>
    <line x1="200" y1="200" x2="110" y2="200" stroke="#d0d7de" stroke-width="1"/>
    <line x1="200" y1="200" x2="136" y2="136" stroke="#d0d7de" stroke-width="1"/>
    <polygon points="200,110 254,146 273,200 252,252 200,242 170,230 158,200 170,170" fill="#9be9a7" fill-opacity="0.5" stroke="#40c463" stroke-width="2"/>
    <circle cx="200" cy="110" r="4" fill="#40c463"/>
    <circle cx="254" cy="146" r="4" fill="#40c463"/>
    <circle cx="273" cy="200" r="4" fill="#40c463"/>
    <circle cx="252" cy="252" r="4" fill="#40c463"/>
    <circle cx="200" cy="242" r="4" fill="#40c463"/>
    <circle cx="170" cy="230" r="4" fill="#40c463"/>
    <circle cx="158" cy="200" r="4" fill="#40c463"/>
    <circle cx="170" cy="170" r="4" fill="#40c463"/>
    <text x="200" y="60" text-anchor="middle" class="label">Machine</text>
    <text x="200" y="75" text-anchor="middle" class="label">Learning</text>
    <text x="200" y="90" text-anchor="middle" class="value">(24)</text>
    <text x="288" y="112" text-anchor="start" class="label">Data</text>
    <text x="288" y="127" text-anchor="start" class="label">Science</text>
    <text x="288" y="142" text-anchor="start" class="value">(18)</text>
    <text x="325" y="200" text-anchor="start" class="label">Computer</text>
    <text x="325" y="215" text-anchor="start" class="label">Vision</text>
    <text x="325" y="230" text-anchor="start" class="value">(15)</text>
    <text x="288" y="288" text-anchor="start" class="label">Natural</text>
    <text x="288" y="303" text-anchor="start" class="label">Language...</text>
    <text x="288" y="318" text-anchor="start" class="value">(14)</text>
    <text x="200" y="330" text-anchor="middle" class="label">Distributed</text>
    <text x="200" y="345" text-anchor="middle" class="label">Systems</text>
    <text x="200" y="360" text-anchor="middle" class="value">(9)</text>
    <text x="112" y="288" text-anchor="end" class="label">Databases</text>
    <text x="112" y="303" text-anchor="end" class="value">(8)</text>
    <text x="75" y="200" text-anchor="end" class="label">Software</text>
    <text x="75" y="215" text-anchor="end" class="label">Engineering</text>
    <text x="75" y="230" text-anchor="end" class="value">(7)</text>
    <text x="112" y="112" text-anchor="end" class="label">Algorithms</text>
    <text x="112" y="127" text-anchor="end" class="value">(7)</text>
  </g>

  <!-- Journals Radar Chart -->
  <g transform="translate(480, 248)">
    <circle cx="200" cy="200" r="22" fill="none" stroke="#d0d7de" stroke-width="1"/>
    <circle cx="200" cy="200" r="45" fill="none" stroke="#d0d7de" stroke-width="1"/>
    <circle cx="200" cy="200" r="67" fill="none" stroke="#d0d7de" stroke-width="1"/>
    <circle cx="200" cy="200" r="90" fill="none" stroke="#d0d7de" stroke-width="1"/>
    <line x1="200" y1="200" x2="200" y2="110" stroke="#d0d7de" stroke-width="1"/>
    <line x1="200" y1="200" x2="264" y2="136" stroke="#d0d7de" stroke-width="1"/>
    <line x1="200" y1="200" x2="290" y2="200" stroke="#d0d7de" stroke-width="1"/>
    <line x1="200" y1="200" x2="264" y2="264" stroke="#d0d7de" stroke-width="1"/>
    <line x1="200" y1="200" x2="200" y2="290" stroke="#d0d7de" stroke-width="1"/>
    <line x1="200" y1="200" x2="136" y2="264" stroke="#d0d7de" stroke-width="1"/>
    <line x1="200" y1="200" x2="110" y2="200" stroke="#d0d7de" stroke-width="1"/>
    <line x1="200" y1="200" x2="136" y2="136" stroke="#d0d7de" stroke-width="1"/>
    <polygon points="200,110 225,175 228,200 217,217 200,224 184,216 178,200 184,184" fill="#9be9a7" fill-opacity="0.5" stroke="#40c463" stroke-width="2"/>
    <circle cx="200" cy="110" r="4" fill="#40c463"/>
    <circle cx="225" cy="175" r="4" fill="#40c463"/>
    <circle cx="228" cy="200" r="4" fill="#40c463"/>
    <circle cx="217" cy="217" r="4" fill="#40c463"/>
    <circle cx="200" cy="224" r="4" fill="#40c463"/>
    <circle cx="184" cy="216" r="4" fill="#40c463"/>
    <circle cx="178" cy="200" r="4" fill="#40c463"/>
    <circle cx="184" cy="184" r="4" fill="#40c463"/>
    <text x="200" y="60" text-anchor="middle" class="label">arXiv</text>
    <text x="200" y="75" text-anchor="middle" class="value">(42)</text>
    <text x="288" y="112" text-anchor="start" class="label">Nature</text>
    <text x="288" y="127" text-anchor="start" class="value">(12)</text>
    <text x="325" y="200" text-anchor="start" class="label">ACM</text>
    <text x="325" y="215" text-anchor="start" class="label">Computing...</text>
    <text x="325" y="230" text-anchor="start" class="value">(10)</text>
    <text x="288" y="288" text-anchor="start" class="label">IEEE</text>
    <text x="288" y="303" text-anchor="start" class="label">Trans...</text>
    <text x="288" y="318" text-anchor="start" class="value">(8)</text>
    <text x="200" y="330" text-anchor="middle" class="label">PLOS ONE</text>
    <text x="200" y="345" text-anchor="middle" class="value">(7)</text>
    <text x="112" y="288" text-anchor="end" class="label">Science</text>
    <text x="112" y="303" text-anchor="end" class="value">(6)</text>
    <text x="75" y="200" text-anchor="end" class="label">JMLR</text>
    <text x="75" y="215" text-anchor="end" class="value">(5)</text>
    <text x="112" y="112" text-anchor="end" class="label">NeurIPS</text>
    <text x="112" y="127" text-anchor="end" class="value">(5)</text>
  </g>

  <!-- Footer -->
  <text x="880" y="678" text-anchor="end" class="footer">95 papers · <a xlink:href="https://github.com/dejori/paper-trail" target="_blank"><tspan class="footer-link">paper-trail</tspan></a></text>
</svg>