<svg width="400" height="400" xmlns="http://www.w3.org/2000/svg">
  <rect width="400" height="400" fill="white"/>
  <style>
    text { font-family: -apple-system, BlinkMacSystemFont, "Segoe UI", Helvetica, Arial, sans-serif; font-size: 11px; fill: #57606a; }
    .label { font-size: 10px; }
    .value { font-size: 9px; fill: #8b949e; }
  </style>
  <circle cx="200" cy="200" r="22" fill="none" stroke="#d0d7de" stroke-width="1"/>
  <circle cx="200" cy="200" r="45" fill="none" stroke="#d0d7de" stroke-width="1"/>
  <circle cx="200" cy="200" r="67" fill="none" stroke="#d0d7de" stroke-width="1"/>
  <circle cx="200" cy="200" r="90" fill="none" stroke="#d0d7de" stroke-width="1"/>
  <line x1="200" y1="200" x2="200.0" y2="110.0" stroke="#d0d7de" stroke-width="1"/>
  <line x1="200" y1="200" x2="263.6396103067893" y2="136.36038969321072" stroke="#d0d7de" stroke-width="1"/>
  <line x1="200" y1="200" x2="290.0" y2="200.0" stroke="#d0d7de" stroke-width="1"/>
  <line x1="200" y1="200" x2="263.6396103067893" y2="263.6396103067893" stroke="#d0d7de" stroke-width="1"/>
  <line x1="200" y1="200" x2="200.0" y2="290.0" stroke="#d0d7de" stroke-width="1"/>
  <line x1="200" y1="200" x2="136.36038969321072" y2="263.6396103067893" stroke="#d0d7de" stroke-width="1"/>
  <line x1="200" y1="200" x2="110.0" y2="200.0" stroke="#d0d7de" stroke-width="1"/>
  <line x1="200" y1="200" x2="136.36038969321072" y2="136.36038969321072" stroke="#d0d7de" stroke-width="1"/>
  <polygon points="200.0,110.0 240.49793383159317,159.50206616840683 250.72727272727275,200.0 231.24126324151473,231.24126324151473 200.0,244.1818181818182 173.3870720535245,226.6129279464755 168.9090909090909,200.0 178.0154073485637,178.0154073485637" fill="#9be9a7" fill-opacity="0.5" stroke="#40c463" stroke-width="2"/>
  <circle cx="200.0" cy="110.0" r="4" fill="#40c463"/>
  <circle cx="240.49793383159317" cy="159.50206616840683" r="4" fill="#40c463"/>
  <circle cx="250.72727272727275" cy="200.0" r="4" fill="#40c463"/>
  <circle cx="231.24126324151473" cy="231.24126324151473" r="4" fill="#40c463"/>
  <circle cx="200.0" cy="244.1818181818182" r="4" fill="#40c463"/>
  <circle cx="173.3870720535245" cy="226.6129279464755" r="4" fill="#40c463"/>
  <circle cx="168.9090909090909" cy="200.0" r="4" fill="#40c463"/>
  <circle cx="178.0154073485637" cy="178.0154073485637" r="4" fill="#40c463"/>
  <text x="200.0" y="60.0" text-anchor="middle" class="label">Computer</text>
  <text x="200.0" y="75.0" text-anchor="middle" class="label">Science -...</text>
  <text x="200.0" y="90.0" text-anchor="middle" class="value">(11)</text>
  <text x="288.3883476483185" y="111.61165235168157" text-anchor="start" class="label">Harness</text>
  <text x="288.3883476483185" y="126.61165235168157" text-anchor="start" class="value">(6)</text>
  <text x="325.0" y="200.0" text-anchor="start" class="label">Computer</text>
  <text x="325.0" y="215.0" text-anchor="start" class="label">Science -...</text>
  <text x="325.0" y="230.0" text-anchor="start" class="value">(5)</text>
  <text x="288.3883476483185" y="288.3883476483184" text-anchor="start" class="label">Computer</text>
  <text x="288.3883476483185" y="303.3883476483184" text-anchor="start" class="label">Science -...</text>
  <text x="288.3883476483185" y="318.3883476483184" text-anchor="start" class="value">(4)</text>
  <text x="200.0" y="330.0" text-anchor="middle" class="label">Large</text>
  <text x="200.0" y="345.0" text-anchor="middle" class="label">Language...</text>
  <text x="200.0" y="360.0" text-anchor="middle" class="value">(4)</text>
  <text x="111.61165235168157" y="288.3883476483185" text-anchor="end" class="label">Artificial</text>
  <text x="111.61165235168157" y="303.3883476483185" text-anchor="end" class="label">Intelligence</text>
  <text x="111.61165235168157" y="318.3883476483185" text-anchor="end" class="value">(3)</text>
  <text x="75.0" y="200.00000000000003" text-anchor="end" class="label">Computer</text>
  <text x="75.0" y="215.00000000000003" text-anchor="end" class="label">Science -...</text>
  <text x="75.0" y="230.00000000000003" text-anchor="end" class="value">(2)</text>
  <text x="111.61165235168154" y="111.61165235168157" text-anchor="end" class="label">Econ.Gn</text>
  <text x="111.61165235168154" y="126.61165235168157" text-anchor="end" class="value">(2)</text>
</svg>